<?xml version="1.0" encoding="utf-8"?>
<!-- Generator: Adobe Illustrator 23.0.1, SVG Export Plug-In . SVG Version: 6.00 Build 0)  -->
<svg version="1.1" id="Layer_1" xmlns="http://www.w3.org/2000/svg" xmlns:xlink="http://www.w3.org/1999/xlink" x="0px" y="0px"
	 viewBox="0 0 1920 153" style="enable-background:new 0 0 1920 153;" xml:space="preserve">
<style type="text/css">
	.st0{fill:#DDDBDB;}
	.st1{opacity:7.000000e-02;fill:#333333;}
	.st2{fill:#BF9332;}
	.st3{opacity:7.000000e-02;fill:#111111;}
	.st4{fill:#FFFFFF;}
</style>
<path class="st0" d="M2033.8,25.4v159.5H-117.8v-65.5c0,0,516.7-159.3,1010.7-89.5c9,1.3,17.9,2.6,26.9,4c2.6,0.4,5.2,0.9,7.8,1.1
	c90.1,14,183.6,22.6,276.4,27.3c35,1.8,69.9,3,104.4,3.8c373.8,8.3,709.2-38.6,724.7-40.8C2033.5,25.4,2033.8,25.4,2033.8,25.4z"/>
<path class="st1" d="M1988.9,71.4v131.2H141v-65.5c0,0,226.4-70.8,521.6-97.3c64.1-5.8,131.5-9.5,200.6-9.8
	c98.8-0.6,200.9,5.5,301.6,21.7c2.6,0.4,5.1,0.8,7.7,1.1c33.2,5.2,66.8,9.7,100.6,13.5c57,6.4,114.7,10.9,172,13.9
	c127.1,6.6,252.7,5.7,366,1.3C1875,79,1934.9,75.4,1988.9,71.4z"/>
<path class="st2" d="M2008.9,77.4v131.2H161v-65.5c0,0,226.4-70.8,521.6-97.3c64.1-5.8,131.5-9.5,200.6-9.8
	c98.8-0.6,200.9,5.5,301.6,21.7c2.6,0.4,5.1,0.8,7.7,1.1c33.2,5.2,66.8,9.7,100.6,13.5c57,6.4,114.7,10.9,172,13.9
	c127.1,6.6,252.7,5.7,366,1.3C1895,85,1954.9,81.4,2008.9,77.4z"/>
<path class="st3" d="M2035.8,49.3v204.2H-115.8v-83.9c0,0,377.2-148.9,795.3-136.6c4,0.1,8.1,0.3,12.2,0.4
	c76.2,2.8,153.7,11.1,230.3,26.7c234.5,47.6,493,48.5,701.9,35.6h0.1c87.9-5.3,166.9-13.1,231.8-20.7
	c105.1-12.4,172.7-24.5,179.5-25.8C2035.5,49.3,2035.8,49.3,2035.8,49.3z"/>
<path class="st4" d="M2033.8,55.7v204.2H-117.8V176c0,0,377.2-148.9,795.3-136.6c4,0.1,8.1,0.3,12.2,0.4
	c76.2,2.8,153.7,11.1,230.3,26.7c234.5,47.6,493,48.5,701.9,35.6h0.1c87.9-5.3,166.9-13.1,231.8-20.7
	c105.1-12.4,172.7-24.5,179.5-25.8C2033.5,55.7,2033.8,55.7,2033.8,55.7z"/>
</svg>